<svg width="70" height="70" viewBox="0 0 70 70" fill="none" xmlns="http://www.w3.org/2000/svg">
<path d="M25.7845 48.8475C25.4366 50.5576 25.1474 52.3073 24.715 54.0208C24.1916 56.095 23.5392 58.1364 22.9599 60.1969C22.7825 60.828 22.6255 61.4693 22.5244 62.1162C22.3831 63.0209 22.6946 63.549 23.5899 63.5977C24.5173 63.6482 25.5157 63.6224 26.3837 63.3326C31.416 61.6522 35.1108 58.4249 37.3035 53.5534C37.4624 53.2003 37.6016 52.9674 38.0388 52.8746C41.3148 52.1797 44.4364 51.0224 47.4595 49.5977C47.906 49.3873 48.1815 49.4414 48.5466 49.7628C50.3343 51.3366 52.2928 52.6467 54.6006 53.3342C56.2104 53.8138 57.8059 53.871 59.345 53.0088C59.909 52.6928 60.0029 52.3463 59.6184 51.85C58.9324 50.9645 58.2376 50.0858 57.5568 49.1964C56.4681 47.7742 55.5409 46.2614 55.1551 44.4877C55.0909 44.1925 55.1556 43.7108 55.354 43.5404C59.5251 39.9579 62.0544 35.3779 63.5745 30.1712C64.5161 26.9459 64.8826 23.6417 64.9953 20.2947C65.0766 17.8826 64.0905 16.001 62.264 14.5189C60.3383 12.9562 58.0647 12.1728 55.6594 11.7833C49.8609 10.8444 44.2014 11.2306 38.8018 13.7462C35.1168 15.4629 32.0976 18.0512 29.3821 21.0256C27.7232 22.8427 26.1252 24.7191 24.3996 26.4701C23.6293 27.2517 22.6748 27.9138 21.6929 28.4107C20.2069 29.1627 19.0229 28.8576 17.8526 27.6699C16.6514 26.4508 15.9701 24.938 15.6199 23.3051C15.3407 22.0031 15.2652 20.6578 15.0903 19.333C15.0383 18.9396 15.191 18.797 15.5819 18.701C19.724 17.6838 22.0966 14.8717 22.4595 10.5909C22.6326 8.54853 22.6326 8.53584 20.5385 8.53406C18.2907 8.53215 16.2354 9.25328 14.2642 10.2662C14.0499 10.3763 13.8363 10.4877 13.5479 10.6372C11.509 8.2423 9.10398 6.48425 5.81027 6.38281C4.41522 9.96794 4.3244 16.2518 9.62702 18.5978C10.1125 18.8126 10.0929 19.1538 10.1009 19.5365C10.1821 23.3981 10.6418 27.209 11.6343 30.9475C12.7503 35.151 14.4194 39.0963 17.1217 42.5478C19.3321 45.3709 22.0353 47.5328 25.4773 48.6842C25.5423 48.7059 25.6002 48.7485 25.7845 48.8475ZM37.5356 43.4806C37.2069 41.9114 38.0979 40.9871 39.6398 40.2503C45.4132 37.4913 50.8091 34.1208 55.6879 29.9547C56.374 29.3689 56.9737 29.3157 57.5362 29.7375C58.0965 30.1575 58.2159 30.7483 57.8645 31.5696C54.5215 39.3838 48.5875 44.3143 40.6415 46.9738C39.1445 47.4748 37.6503 46.3722 37.5393 44.785C37.5139 44.4216 37.5356 44.055 37.5356 43.4806ZM37.498 33.7778C36.1202 33.7641 35.0119 32.6178 35.0414 31.2368C35.0702 29.8842 36.1785 28.8013 37.5318 28.8035C38.926 28.8057 40.0205 29.909 40.0156 31.3071C40.0107 32.696 38.8943 33.7917 37.498 33.7778Z" fill="url(#paint0_linear_4790_191266)"/>
<defs>
<linearGradient id="paint0_linear_4790_191266" x1="35" y1="6.38281" x2="35" y2="63.6184" gradientUnits="userSpaceOnUse">
<stop stop-color="#66DAFF"/>
<stop offset="1" stop-color="white"/>
</linearGradient>
</defs>
</svg>
